<?xml version="1.0" encoding="UTF-8"?>
<!DOCTYPE svg PUBLIC "-//W3C//DTD SVG 1.1//EN" "http://www.w3.org/Graphics/SVG/1.1/DTD/svg11.dtd">
<!-- Creator: CorelDRAW 2019 (64-Bit) -->
<svg xmlns="http://www.w3.org/2000/svg" xml:space="preserve" width="1.16797in" height="1.53333in" version="1.1" style="shape-rendering:geometricPrecision; text-rendering:geometricPrecision; image-rendering:optimizeQuality; fill-rule:evenodd; clip-rule:evenodd"
viewBox="0 0 2847.37 3738.07"
 xmlns:xlink="http://www.w3.org/1999/xlink"
 enable-background="new 0 0 512 512">
 <defs>
  <style type="text/css">
   <![CDATA[
    .fil0 {fill:#FEFEFE}
   ]]>
  </style>
 </defs>
 <g id="Layer_x0020_1">
  <metadata id="CorelCorpID_0Corel-Layer"/>
  <g id="LOGO.svg">
   <g>
    <ellipse class="fil0" cx="1423.69" cy="1211.95" rx="328.54" ry="438.06"/>
    <path class="fil0" d="M2847.37 3300.01c0,-241.59 -196.46,-438.05 -438.06,-438.05 -177.52,0 -569.38,241.8 -731.94,345.76l-144.17 92.29 144.17 92.2c162.45,104.05 554.19,345.86 731.94,345.86 241.6,0 438.06,-196.46 438.06,-438.06z"/>
    <path class="fil0" d="M0.01 3300.01c0,241.6 196.46,438.06 438.06,438.06 177.52,0 569.38,-241.81 731.94,-345.76l144.17 -92.3 -144.17 -92.19c-162.45,-104.06 -554.19,-345.86 -731.94,-345.86 -241.6,0 -438.06,196.46 -438.06,438.05z"/>
    <path class="fil0" d="M845.11 455.83c-327.69,250.26 -626.07,561.69 -626.07,975.14 0,416.24 255.93,727.14 741.25,901.99 16.8,68.44 25.35,133.26 25.35,193.15 0,96.28 -21.96,200.81 -51.15,288.37 219.74,116.91 402.09,241.32 489.23,295.55 77.29,-48.15 270.47,-179.39 489.13,-295.72 -29.16,-87.51 -51.1,-191.99 -51.1,-288.2 0,-59.89 8.56,-124.71 25.35,-193.15 485.32,-174.86 741.25,-485.75 741.25,-901.99 0,-413.45 -298.38,-724.88 -626.07,-975.14 -159.88,-122.02 -469.07,-455.83 -469.07,-455.83 191.56,333.7 643.92,1239.07 499.12,1597.07 -72.93,180.42 -277.74,271.97 -608.63,271.97 -330.89,0 -535.69,-91.55 -608.63,-271.97 -144.78,-357.99 307.57,-1263.37 499.12,-1597.07 0,0 -309.18,333.82 -469.07,455.83l0.01 0z"/>
   </g>
  </g>
 </g>
</svg>
