<?xml version="1.0" encoding="UTF-8"?>
<!DOCTYPE svg PUBLIC "-//W3C//DTD SVG 1.1//EN" "http://www.w3.org/Graphics/SVG/1.1/DTD/svg11.dtd">
<!-- Creator: CorelDRAW 2019 (64-Bit) -->
<svg xmlns="http://www.w3.org/2000/svg" xml:space="preserve" width="0.311035in" height="0.408331in" version="1.1" style="shape-rendering:geometricPrecision; text-rendering:geometricPrecision; image-rendering:optimizeQuality; fill-rule:evenodd; clip-rule:evenodd"
viewBox="0 0 13.8 18.12"
 xmlns:xlink="http://www.w3.org/1999/xlink">
 <defs>
  <style type="text/css">
   <![CDATA[
    .fil0 {fill:#06544F}
   ]]>
  </style>
 </defs>
 <g id="Layer_x0020_1">
  <metadata id="CorelCorpID_0Corel-Layer"/>
  <g id="LOGO.svg">
   <g>
    <ellipse class="fil0" cx="6.9" cy="5.87" rx="1.59" ry="2.12"/>
    <path class="fil0" d="M13.8 16c0,-1.17 -0.95,-2.12 -2.12,-2.12 -0.86,0 -2.76,1.17 -3.55,1.68l-0.7 0.45 0.7 0.45c0.79,0.5 2.69,1.68 3.55,1.68 1.17,0 2.12,-0.95 2.12,-2.12z"/>
    <path class="fil0" d="M-0 16c0,1.17 0.95,2.12 2.12,2.12 0.86,0 2.76,-1.17 3.55,-1.68l0.7 -0.45 -0.7 -0.45c-0.79,-0.5 -2.69,-1.68 -3.55,-1.68 -1.17,0 -2.12,0.95 -2.12,2.12z"/>
    <path class="fil0" d="M4.1 2.21c-1.59,1.21 -3.03,2.72 -3.03,4.73 0,2.02 1.24,3.52 3.59,4.37 0.08,0.33 0.12,0.65 0.12,0.94 0,0.47 -0.11,0.97 -0.25,1.4 1.06,0.57 1.95,1.17 2.37,1.43 0.37,-0.23 1.31,-0.87 2.37,-1.43 -0.14,-0.42 -0.25,-0.93 -0.25,-1.4 0,-0.29 0.04,-0.6 0.12,-0.94 2.35,-0.85 3.59,-2.35 3.59,-4.37 0,-2 -1.45,-3.51 -3.03,-4.73 -0.77,-0.59 -2.27,-2.21 -2.27,-2.21 0.93,1.62 3.12,6.01 2.42,7.74 -0.35,0.87 -1.35,1.32 -2.95,1.32 -1.6,0 -2.6,-0.44 -2.95,-1.32 -0.7,-1.74 1.49,-6.12 2.42,-7.74 0,0 -1.5,1.62 -2.27,2.21l0 0 0 0z"/>
   </g>
  </g>
 </g>
</svg>
